<?xml version="1.0" encoding="utf-8"?>
<!DOCTYPE svg PUBLIC "-//W3C//DTD SVG 1.1//EN" "http://www.w3.org/Graphics/SVG/1.1/DTD/svg11.dtd">
<svg version="1.1"  xmlns="http://www.w3.org/2000/svg" xmlns:xlink="http://www.w3.org/1999/xlink" x="0px" y="0px"
	 width="84px" height="42px" viewBox="0 0 84 42" enable-background="new 0 0 84 42" xml:space="preserve">
    <path fill="#ffffff" d="M73.895,27.623 c0,0 0,0 0,0 l-6.655,-6.655 l6.655,-6.655 c0,0 0,0 0,0 c0.072,-0.072 0.123,-0.155 0.157,-0.245 c0.091,-0.244 0.039,-0.529 -0.157,-0.725 l-3.144,-3.143 c-0.196,-0.196 -0.481,-0.248 -0.725,-0.157 c-0.089,0.033 -0.173,0.085 -0.245,0.157 c0,0 0,0 0,0 l-6.655,6.655 l-6.654,-6.655 c0,0 0,0 0,0 c-0.072,-0.072 -0.155,-0.123 -0.245,-0.157 c-0.244,-0.091 -0.529,-0.039 -0.725,0.157 l-3.144,3.144 c-0.196,0.196 -0.248,0.481 -0.157,0.725 c0.033,0.089 0.085,0.173 0.157,0.245 c0,0 0,0 0,0 l6.655,6.655 l-6.655,6.655 c0,0 0,0 0,0 c-0.072,0.072 -0.123,0.155 -0.157,0.245 c-0.091,0.244 -0.039,0.529 0.157,0.725 l3.144,3.144 c0.196,0.196 0.481,0.248 0.725,0.157 c0.089,-0.033 0.173,-0.085 0.245,-0.157 c0,0 0,0 0,0 l6.655,-6.655 l6.655,6.655 c0,0 0,0 0,0 c0.072,0.072 0.155,0.123 0.245,0.157 c0.244,0.091 0.529,0.039 0.725,-0.157 l3.144,-3.144 c0.196,-0.196 0.248,-0.481 0.157,-0.725 c-0.0350029,-0.0910004 -0.0859978,-0.174001 -0.158004,-0.246001 z"/>
    <path fill="#ffffff" d="M10,10 v0.801 v6.479 v14.72 h21.984 v-14.719 v-6.481 v-0.8 h-21.984 z m20.017,20 h-18.048 v-14.016 h18.047 l0.000999451,14.016 l0,0 z"/>
</svg>
