<?xml version="1.0" encoding="UTF-8"?>
<!DOCTYPE svg PUBLIC "-//W3C//DTD SVG 1.1//EN" "http://www.w3.org/Graphics/SVG/1.1/DTD/svg11.dtd">
<svg version="1.1" xmlns="http://www.w3.org/2000/svg" xmlns:xlink="http://www.w3.org/1999/xlink" x="0px" y="0px" width="15px" height="56px" viewBox="0 0 15 56" enable-background="new 0 0 15 56" xml:space="preserve">
    <circle cx="7" cy="7" r="6.5" stroke="#c0cad5" stroke-width="1" fill="#ffffff" />
    <circle cx="7" cy="21" r="6.5" stroke="#c0cad5" stroke-width="1" fill="#ffffff" />
    <circle cx="7" cy="35" r="6.5" stroke="#adb6c0" stroke-width="1" fill="#dae1e8" />
    <circle cx="7" cy="49" r="6.5" stroke="#adb6c0" stroke-width="1" fill="#dae1e8" />
    <path fill="#237ba0" d="m15,15.86 c0,0.079 -0.029,0.148 -0.087,0.207 l-7.874,7.893 c-0.05,0.058 -0.117,0.088 -0.2,0.088 h-0.0130003 h-0.0119998 c-0.075,0 -0.142,-0.029 -0.2,-0.088 l-3.65,-3.646 c-0.058,-0.0750003 -0.087,-0.146 -0.087,-0.213 c0,-0.067 0.029,-0.138 0.087,-0.213 l1.563,-1.566 c0.142,-0.125 0.283,-0.125 0.425,0 l1.875,1.892 l6.099,-6.126 c0.0740002,-0.0590001 0.145,-0.0880001 0.211,-0.0880001 c0.067,0 0.137,0.029 0.212,0.088 l1.562,1.566 c0.0590001,0.058 0.0889999,0.127 0.0889999,0.206 z"/>
    <path fill="#237ba0" d="m15,43.86 c0,0.079 -0.029,0.148 -0.087,0.207 l-7.874,7.893 c-0.05,0.058 -0.117,0.088 -0.2,0.088 h-0.0130003 h-0.0119998 c-0.075,0 -0.142,-0.029 -0.2,-0.088 l-3.65,-3.646 c-0.058,-0.0750003 -0.087,-0.146 -0.087,-0.213 c0,-0.067 0.029,-0.138 0.087,-0.213 l1.563,-1.566 c0.142,-0.125 0.283,-0.125 0.425,0 l1.875,1.892 l6.099,-6.126 c0.0740002,-0.0590001 0.145,-0.0880001 0.211,-0.0880001 c0.067,0 0.137,0.029 0.212,0.088 l1.562,1.566 c0.0590001,0.058 0.0889999,0.127 0.0889999,0.206 z"/>
</svg>