<?xml version="1.0" encoding="UTF-8"?>
<svg version="1.1" xmlns="http://www.w3.org/2000/svg" xmlns:xlink="http://www.w3.org/1999/xlink" x="0px" y="0px" width="1000px" height="1000px" viewBox="0 0 1000 1000" enable-background="new 0 0 1000 1000" xml:space="preserve">
    <!--<rect width="100%" height="100%" fill="gray" />-->

    <!--Rect Checkbox 0,0 15,56-->
    <path stroke="#c0cad5" stroke-width="1" fill="#ffffff" d="M0.5,0.5h13v13h-13z M0.5,14.5h13v13h-13z"  />
    <path stroke="#adb6c0" stroke-width="1" fill="#dae1e8" d="M0.5,28.5h13v13h-13z M0.5,42.5h13v13h-13z" />
    <path fill="#237ba0" d="M15,15.86 c0,0.079 -0.029,0.148 -0.087,0.207 l-7.874,7.893 c-0.05,0.058 -0.117,0.088 -0.2,0.088 h-0.0130003 h-0.0119998 c-0.075,0 -0.142,-0.029 -0.2,-0.088 l-3.65,-3.646 c-0.058,-0.0750003 -0.087,-0.146 -0.087,-0.213 c0,-0.067 0.029,-0.138 0.087,-0.213 l1.563,-1.566 c0.142,-0.125 0.283,-0.125 0.425,0 l1.875,1.892 l6.099,-6.126 c0.0740002,-0.0590001 0.145,-0.0880001 0.211,-0.0880001 c0.067,0 0.137,0.029 0.212,0.088 l1.562,1.566 c0.0590001,0.058 0.0889999,0.127 0.0889999,0.206 z M15,43.86 c0,0.079 -0.029,0.148 -0.087,0.207 l-7.874,7.893 c-0.05,0.058 -0.117,0.088 -0.2,0.088 h-0.0130003 h-0.0119998 c-0.075,0 -0.142,-0.029 -0.2,-0.088 l-3.65,-3.646 c-0.058,-0.0750003 -0.087,-0.146 -0.087,-0.213 c0,-0.067 0.029,-0.138 0.087,-0.213 l1.563,-1.566 c0.142,-0.125 0.283,-0.125 0.425,0 l1.875,1.892 l6.099,-6.126 c0.0740002,-0.0590001 0.145,-0.0880001 0.211,-0.0880001 c0.067,0 0.137,0.029 0.212,0.088 l1.562,1.566 c0.0590001,0.058 0.0889999,0.127 0.0889999,0.206 z"/>
    <!--Rect Checkbox End-->

    <!--Circle Checkbox 0,56 15,56 & Radio buttons 0,112 15,56-->
    <path stroke="#c0cad5" stroke-width="1" fill="#ffffff" d="M7,63m-6.5,0a6.5,6.5 0 1,0 13,0a 6.5,6.5 0 1,0 -13,0 M7,77m-6.5,0a6.5,6.5 0 1,0 13,0a 6.5,6.5 0 1,0 -13,0 M7,119m-6.5,0a6.5,6.5 0 1,0 13,0a 6.5,6.5 0 1,0 -13,0 M7,133m-6.5,0a6.5,6.5 0 1,0 13,0a 6.5,6.5 0 1,0 -13,0" />
    <path stroke="#adb6c0" stroke-width="1" fill="#dae1e8" d="M7,91m-6.5,0a6.5,6.5 0 1,0 13,0a 6.5,6.5 0 1,0 -13,0 M7,105m-6.5,0a6.5,6.5 0 1,0 13,0a 6.5,6.5 0 1,0 -13,0 M7,147m-6.5,0a6.5,6.5 0 1,0 13,0a 6.5,6.5 0 1,0 -13,0 M7,161m-6.5,0a6.5,6.5 0 1,0 13,0a 6.5,6.5 0 1,0 -13,0" />
    <!--Checkbox ok-->
    <path stroke-width="0" fill="#237ba0" d="M7,133m-2.5,0a2.5,2.5 0 1,0 5,0a 2.5,2.5 0 1,0 -5,0 M7,161m-2.5,0a2.5,2.5 0 1,0 5,0a 2.5,2.5 0 1,0 -5,0" />
    <!--Radio button point-->
    <path fill="#237ba0" d="m15,71.86 c0,0.079 -0.029,0.148 -0.087,0.207 l-7.874,7.893 c-0.05,0.058 -0.117,0.088 -0.2,0.088 h-0.0130003 h-0.0119998 c-0.075,0 -0.142,-0.029 -0.2,-0.088 l-3.65,-3.646 c-0.058,-0.0750003 -0.087,-0.146 -0.087,-0.213 c0,-0.067 0.029,-0.138 0.087,-0.213 l1.563,-1.566 c0.142,-0.125 0.283,-0.125 0.425,0 l1.875,1.892 l6.099,-6.126 c0.0740002,-0.0590001 0.145,-0.0880001 0.211,-0.0880001 c0.067,0 0.137,0.029 0.212,0.088 l1.562,1.566 c0.0590001,0.058 0.0889999,0.127 0.0889999,0.206 z M15,99.86 c0,0.079 -0.029,0.148 -0.087,0.207 l-7.874,7.893 c-0.05,0.058 -0.117,0.088 -0.2,0.088 h-0.0130003 h-0.0119998 c-0.075,0 -0.142,-0.029 -0.2,-0.088 l-3.65,-3.646 c-0.058,-0.0750003 -0.087,-0.146 -0.087,-0.213 c0,-0.067 0.029,-0.138 0.087,-0.213 l1.563,-1.566 c0.142,-0.125 0.283,-0.125 0.425,0 l1.875,1.892 l6.099,-6.126 c0.0740002,-0.0590001 0.145,-0.0880001 0.211,-0.0880001 c0.067,0 0.137,0.029 0.212,0.088 l1.562,1.566 c0.0590001,0.058 0.0889999,0.127 0.0889999,0.206 z"/>
    <!--Circle Checkbox & Radio buttons End-->

    <!--Boxes icons 0,168 42,21-->
    <!--<rect fill="#FF0000" x="0" y="168" width="42" height="21"/>-->
    <path fill="#FFFFFF" d="M36.947,181.811 l0,0 l-3.327,-3.328 l3.327,-3.328 l0,0 c0.036,-0.036 0.062,-0.077 0.078,-0.122 c0.046,-0.122 0.02,-0.265 -0.078,-0.363 l-1.572,-1.57 c-0.098,-0.098 -0.241,-0.124 -0.362,-0.078 c-0.0439982,0.0160002 -0.0860019,0.0420002 -0.123001,0.078 l0,0 l-3.327,3.327 l-3.327,-3.327 l0,0 c-0.036,-0.036 -0.077,-0.062 -0.122,-0.078 c-0.122,-0.045 -0.264,-0.019 -0.362,0.078 l-1.572,1.572 c-0.098,0.098 -0.124,0.24 -0.079,0.363 c0.017,0.044 0.042,0.087 0.079,0.122 l0,0 l3.327,3.328 l-3.327,3.328 l0,0 c-0.036,0.036 -0.062,0.078 -0.079,0.123 c-0.045,0.122 -0.02,0.264 0.079,0.363 l1.572,1.572 c0.098,0.098 0.24,0.124 0.362,0.078 c0.045,-0.017 0.087,-0.042 0.122,-0.078 l0,0 l3.327,-3.328 l3.327,3.328 l0,0 c0.036,0.036 0.077,0.061 0.123,0.078 c0.122,0.045 0.264,0.019 0.362,-0.078 l1.572,-1.572 c0.098,-0.098 0.124,-0.241 0.078,-0.363 c-0.016001,-0.0470001 -0.0419982,-0.089 -0.0780013,-0.125 z"/>
    <path fill="#FFFFFF" d="M5,173 v0.4 v3.24 v7.36 h10.992 v-7.359 v-3.241 v-0.4 h-10.992 z m10.009,10 h-9.025 v-7.008 h9.024 l0.000999451,7.008 l0,0 z"/>


    <!--Back fwd 0,189 25,100-->
    <!--<rect x="0" y="189" width="25" height="25" fill="red" />-->
    <!--<rect x="0" y="214" width="25" height="25" fill="blue" />-->
    <!--<rect x="0" y="239" width="25" height="25" fill="red" />-->
    <!--<rect x="0" y="264" width="25" height="25" fill="blue" />-->
    <path fill="#237ba0" d="M14.25,198v7l-3.5,-3.5z M10.75,223v7l3.5,-3.5z" />
    <path fill="#ffffff" d="M14.25,248v7l-3.5,-3.5z M10.75,273v7l3.5,-3.5z" />


    <!--Calendar 0,289 25,25-->
    <path fill="#65b1cf" d="M5,294v14.3h15v-14.3z" />
    <path fill="#ffffff" d="M5,300v7.5h15v-7.5z" />
    <path fill="none" stroke="#237ba0" stroke-width="1" d="M7,294.5 h-2 v13 h15 v-13 h-2 m-8.5,-1.5 v3 h-1 v-3 m8,0 v3 h-1 v-3 m-4.5,1.5 h3" />


    <!--Balloon close button white 0,314 25,25-->
    <!--<rect x="0" y="314" width="25" height="25" fill="blue" />-->
    <path fill="#ffffff" d="M6,320m8.245,4.29 c-0.00500011,-0.136 -0.0559998,-0.271 -0.16,-0.375 c-0.104,-0.104 -0.239,-0.155 -0.375,-0.161 c-0.151,-0.006 -0.305,0.045 -0.42,0.161 l-1.29,1.29 l-1.289,-1.29 c-0.116,-0.116 -0.269,-0.167 -0.421,-0.161 c-0.136,0.00600004 -0.271,0.0570002 -0.375,0.161 c-0.103,0.104 -0.154,0.239 -0.16,0.375 c-0.00700021,0.152 0.0439999,0.304 0.16,0.42 l1.29,1.29 l-1.29,1.289 c-0.116,0.116 -0.166,0.269 -0.16,0.421 c0.00499988,0.136 0.056,0.271 0.16,0.375 c0.104,0.103 0.239,0.154 0.375,0.16 c0.152,0.006 0.305,-0.045 0.42,-0.161 l1.29,-1.289 l1.29,1.29 c0.116,0.116 0.269,0.166 0.42,0.161 c0.136,-0.00600027 0.271,-0.0569999 0.375,-0.161 c0.104,-0.104 0.155,-0.239 0.161,-0.375 c0.006,-0.152 -0.045,-0.304 -0.161,-0.42 l-1.29,-1.29 l1.289,-1.289 c0.117,-0.116 0.167,-0.269 0.161,-0.421 z m-2.245,-4.29 c-3.313,0 -6,2.687 -6,6 s2.687,6 6,6 s6,-2.687 6,-6 s-2.687,-6 -6,-6 z m0,10.875 c-2.688,0 -4.875,-2.187 -4.875,-4.875 s2.187,-4.875 4.875,-4.875 s4.875,2.187 4.875,4.875 s-2.187,4.875 -4.875,4.875 z" />

    <!--Balloon close button black 0,339 25,25-->
    <!--<rect x="0" y="339" width="25" height="25" fill="red" />-->
    <path fill="#000000" d="M6,345m8.245,4.29 c-0.00500011,-0.136 -0.0559998,-0.271 -0.16,-0.375 c-0.104,-0.104 -0.239,-0.155 -0.375,-0.161 c-0.151,-0.006 -0.305,0.045 -0.42,0.161 l-1.29,1.29 l-1.289,-1.29 c-0.116,-0.116 -0.269,-0.167 -0.421,-0.161 c-0.136,0.00600004 -0.271,0.0570002 -0.375,0.161 c-0.103,0.104 -0.154,0.239 -0.16,0.375 c-0.00700021,0.152 0.0439999,0.304 0.16,0.42 l1.29,1.29 l-1.29,1.289 c-0.116,0.116 -0.166,0.269 -0.16,0.421 c0.00499988,0.136 0.056,0.271 0.16,0.375 c0.104,0.103 0.239,0.154 0.375,0.16 c0.152,0.006 0.305,-0.045 0.42,-0.161 l1.29,-1.289 l1.29,1.29 c0.116,0.116 0.269,0.166 0.42,0.161 c0.136,-0.00600027 0.271,-0.0569999 0.375,-0.161 c0.104,-0.104 0.155,-0.239 0.161,-0.375 c0.006,-0.152 -0.045,-0.304 -0.161,-0.42 l-1.29,-1.29 l1.289,-1.289 c0.117,-0.116 0.167,-0.269 0.161,-0.421 z m-2.245,-4.29 c-3.313,0 -6,2.687 -6,6 s2.687,6 6,6 s6,-2.687 6,-6 s-2.687,-6 -6,-6 z m0,10.875 c-2.688,0 -4.875,-2.187 -4.875,-4.875 s2.187,-4.875 4.875,-4.875 s4.875,2.187 4.875,4.875 s-2.187,4.875 -4.875,4.875 z" />

    <!--Power button white 25,314 25,25-->
    <!--<rect x="25" y="314" width="25" height="25" fill="blue" />-->
    <path fill="#ffffff" d="M30,319.5 m10,1.674 v2.326 c1.215,0.912 2,2.364 2,4 c0,2.762 -2.238,5 -5,5 s-5,-2.238 -5,-5 c0,-1.636 0.785,-3.088 2,-4 v-2.326 c-2.365,1.123 -4,3.534 -4,6.326 c0,3.866 3.134,7 7,7 s7,-3.134 7,-7 c0,-2.792 -1.635,-5.203 -4,-6.326 z m-2,5.329 v-6.006 c0,-0.551 -0.444,-0.997 -1,-0.997 c-0.553,0 -1,0.453 -1,0.997 v6.006 c0,0.551 0.444,0.997 1,0.997 c0.553,0 1,-0.453 1,-0.997 z" />
    <!--Power button black 25,339 25,25-->
    <!--<rect x="25" y="339" width="25" height="25" fill="blue" />-->
    <path fill="#000000" d="M30,344.5 m10,1.674 v2.326 c1.215,0.912 2,2.364 2,4 c0,2.762 -2.238,5 -5,5 s-5,-2.238 -5,-5 c0,-1.636 0.785,-3.088 2,-4 v-2.326 c-2.365,1.123 -4,3.534 -4,6.326 c0,3.866 3.134,7 7,7 s7,-3.134 7,-7 c0,-2.792 -1.635,-5.203 -4,-6.326 z m-2,5.329 v-6.006 c0,-0.551 -0.444,-0.997 -1,-0.997 c-0.553,0 -1,0.453 -1,0.997 v6.006 c0,0.551 0.444,0.997 1,0.997 c0.553,0 1,-0.453 1,-0.997 z" />


    <!--Message icons 0,368 150,150-->
    <path fill="#e11d21" d="M4,368 m13.657,2.343 c-3.124,-3.124 -8.189,-3.124 -11.314,0 c-3.124,3.124 -3.124,8.189 0,11.314 c3.124,3.123 8.189,3.124 11.314,0 c3.124,-3.125 3.123,-8.19 0,-11.314 z m-4.614,9.135 c0,0.576 -0.467,1.043 -1.043,1.043 s-1.043,-0.467 -1.043,-1.043 v-4.174 c0,-0.576 0.467,-1.043 1.043,-1.043 s1.043,0.467 1.043,1.043 v4.174 z m-1.062,-5.957 c-0.601,0 -1.002,-0.426 -0.989,-0.951 c-0.0129998,-0.552 0.388,-0.965 1.001,-0.965 c0.614,0 1.002,0.413 1.015,0.964 c3.57628e-07,0.526 -0.401,0.952 -1.027,0.952 z"/>
    <path fill="#009800" d="M29,368 m13.657,2.343 c-3.124,-3.124 -8.189,-3.124 -11.314,0 c-3.124,3.124 -3.124,8.189 0,11.314 c3.124,3.123 8.189,3.124 11.314,0 c3.124,-3.125 3.123,-8.19 0,-11.314 z m-4.614,9.135 c0,0.576 -0.467,1.043 -1.043,1.043 s-1.043,-0.467 -1.043,-1.043 v-4.174 c0,-0.576 0.467,-1.043 1.043,-1.043 s1.043,0.467 1.043,1.043 v4.174 z m-1.062,-5.957 c-0.601,0 -1.002,-0.426 -0.989,-0.951 c-0.0129998,-0.552 0.388,-0.965 1.001,-0.965 c0.614,0 1.002,0.413 1.015,0.964 c3.57628e-07,0.526 -0.401,0.952 -1.027,0.952 z"/>
    <path fill="#207de5" d="M54,368 m13.657,2.343 c-3.124,-3.124 -8.189,-3.124 -11.314,0 c-3.124,3.124 -3.124,8.189 0,11.314 c3.124,3.123 8.189,3.124 11.314,0 c3.124,-3.125 3.123,-8.19 0,-11.314 z m-4.614,9.135 c0,0.576 -0.467,1.043 -1.043,1.043 s-1.043,-0.467 -1.043,-1.043 v-4.174 c0,-0.576 0.467,-1.043 1.043,-1.043 s1.043,0.467 1.043,1.043 v4.174 z m-1.062,-5.957 c-0.601,0 -1.002,-0.426 -0.989,-0.951 c-0.0129998,-0.552 0.388,-0.965 1.001,-0.965 c0.614,0 1.002,0.413 1.015,0.964 c3.57628e-07,0.526 -0.401,0.952 -1.027,0.952 z"/>
    <path fill="#fbca04" d="M79,368 m13.657,2.343 c-3.124,-3.124 -8.189,-3.124 -11.314,0 c-3.124,3.124 -3.124,8.189 0,11.314 c3.124,3.123 8.189,3.124 11.314,0 c3.124,-3.125 3.123,-8.19 0,-11.314 z m-4.614,9.135 c0,0.576 -0.467,1.043 -1.043,1.043 s-1.043,-0.467 -1.043,-1.043 v-4.174 c0,-0.576 0.467,-1.043 1.043,-1.043 s1.043,0.467 1.043,1.043 v4.174 z m-1.062,-5.957 c-0.601,0 -1.002,-0.426 -0.989,-0.951 c-0.0129998,-0.552 0.388,-0.965 1.001,-0.965 c0.614,0 1.002,0.413 1.015,0.964 c3.57628e-07,0.526 -0.401,0.952 -1.027,0.952 z"/>
    <path fill="#ffffff" d="M104,368 m13.657,2.343 c-3.124,-3.124 -8.189,-3.124 -11.314,0 c-3.124,3.124 -3.124,8.189 0,11.314 c3.124,3.123 8.189,3.124 11.314,0 c3.124,-3.125 3.123,-8.19 0,-11.314 z m-4.614,9.135 c0,0.576 -0.467,1.043 -1.043,1.043 s-1.043,-0.467 -1.043,-1.043 v-4.174 c0,-0.576 0.467,-1.043 1.043,-1.043 s1.043,0.467 1.043,1.043 v4.174 z m-1.062,-5.957 c-0.601,0 -1.002,-0.426 -0.989,-0.951 c-0.0129998,-0.552 0.388,-0.965 1.001,-0.965 c0.614,0 1.002,0.413 1.015,0.964 c3.57628e-07,0.526 -0.401,0.952 -1.027,0.952 z"/>
    <path fill="#000000" d="M129,368 m13.657,2.343 c-3.124,-3.124 -8.189,-3.124 -11.314,0 c-3.124,3.124 -3.124,8.189 0,11.314 c3.124,3.123 8.189,3.124 11.314,0 c3.124,-3.125 3.123,-8.19 0,-11.314 z m-4.614,9.135 c0,0.576 -0.467,1.043 -1.043,1.043 s-1.043,-0.467 -1.043,-1.043 v-4.174 c0,-0.576 0.467,-1.043 1.043,-1.043 s1.043,0.467 1.043,1.043 v4.174 z m-1.062,-5.957 c-0.601,0 -1.002,-0.426 -0.989,-0.951 c-0.0129998,-0.552 0.388,-0.965 1.001,-0.965 c0.614,0 1.002,0.413 1.015,0.964 c3.57628e-07,0.526 -0.401,0.952 -1.027,0.952 z"/>

    <path fill="#e11d21" d="M4,393 m15.82,14.529 l-6.938,-13 c-0.173,-0.325 -0.512,-0.529 -0.880999,-0.529 h-0.0010004 c-0.369,0 -0.707,0.203 -0.881,0.528 l-6.969,13 c-0.166,0.311 -0.157,0.685 0.023,0.986 c0.181,0.3 0.507,0.486 0.858,0.486 h13.906 c0.351,0 0.677,-0.184 0.858,-0.486 c0.181,-0.301 0.19,-0.675 0.0249996,-0.985 z m-7.82,-0.529 c-0.552,0 -1,-0.448 -1,-1 s0.448,-1 1,-1 c0.551,0 1,0.448 1,1 s-0.449,1 -1,1 z m1,-3.984 c0,0.553 -0.449,1 -1,1 c-0.552,0 -1,-0.447 -1,-1 v-4 c0,-0.552 0.448,-1 1,-1 c0.551,0 1,0.448 1,1 v4 z"/>
    <path fill="#009800" d="M29,393 m15.82,14.529 l-6.938,-13 c-0.173,-0.325 -0.512,-0.529 -0.880999,-0.529 h-0.0010004 c-0.369,0 -0.707,0.203 -0.881,0.528 l-6.969,13 c-0.166,0.311 -0.157,0.685 0.023,0.986 c0.181,0.3 0.507,0.486 0.858,0.486 h13.906 c0.351,0 0.677,-0.184 0.858,-0.486 c0.181,-0.301 0.19,-0.675 0.0249996,-0.985 z m-7.82,-0.529 c-0.552,0 -1,-0.448 -1,-1 s0.448,-1 1,-1 c0.551,0 1,0.448 1,1 s-0.449,1 -1,1 z m1,-3.984 c0,0.553 -0.449,1 -1,1 c-0.552,0 -1,-0.447 -1,-1 v-4 c0,-0.552 0.448,-1 1,-1 c0.551,0 1,0.448 1,1 v4 z"/>
    <path fill="#207de5" d="M54,393 m15.82,14.529 l-6.938,-13 c-0.173,-0.325 -0.512,-0.529 -0.880999,-0.529 h-0.0010004 c-0.369,0 -0.707,0.203 -0.881,0.528 l-6.969,13 c-0.166,0.311 -0.157,0.685 0.023,0.986 c0.181,0.3 0.507,0.486 0.858,0.486 h13.906 c0.351,0 0.677,-0.184 0.858,-0.486 c0.181,-0.301 0.19,-0.675 0.0249996,-0.985 z m-7.82,-0.529 c-0.552,0 -1,-0.448 -1,-1 s0.448,-1 1,-1 c0.551,0 1,0.448 1,1 s-0.449,1 -1,1 z m1,-3.984 c0,0.553 -0.449,1 -1,1 c-0.552,0 -1,-0.447 -1,-1 v-4 c0,-0.552 0.448,-1 1,-1 c0.551,0 1,0.448 1,1 v4 z"/>
    <path fill="#fbca04" d="M79,393 m15.82,14.529 l-6.938,-13 c-0.173,-0.325 -0.512,-0.529 -0.880999,-0.529 h-0.0010004 c-0.369,0 -0.707,0.203 -0.881,0.528 l-6.969,13 c-0.166,0.311 -0.157,0.685 0.023,0.986 c0.181,0.3 0.507,0.486 0.858,0.486 h13.906 c0.351,0 0.677,-0.184 0.858,-0.486 c0.181,-0.301 0.19,-0.675 0.0249996,-0.985 z m-7.82,-0.529 c-0.552,0 -1,-0.448 -1,-1 s0.448,-1 1,-1 c0.551,0 1,0.448 1,1 s-0.449,1 -1,1 z m1,-3.984 c0,0.553 -0.449,1 -1,1 c-0.552,0 -1,-0.447 -1,-1 v-4 c0,-0.552 0.448,-1 1,-1 c0.551,0 1,0.448 1,1 v4 z"/>
    <path fill="#ffffff" d="M104,393 m15.82,14.529 l-6.938,-13 c-0.173,-0.325 -0.512,-0.529 -0.880999,-0.529 h-0.0010004 c-0.369,0 -0.707,0.203 -0.881,0.528 l-6.969,13 c-0.166,0.311 -0.157,0.685 0.023,0.986 c0.181,0.3 0.507,0.486 0.858,0.486 h13.906 c0.351,0 0.677,-0.184 0.858,-0.486 c0.181,-0.301 0.19,-0.675 0.0249996,-0.985 z m-7.82,-0.529 c-0.552,0 -1,-0.448 -1,-1 s0.448,-1 1,-1 c0.551,0 1,0.448 1,1 s-0.449,1 -1,1 z m1,-3.984 c0,0.553 -0.449,1 -1,1 c-0.552,0 -1,-0.447 -1,-1 v-4 c0,-0.552 0.448,-1 1,-1 c0.551,0 1,0.448 1,1 v4 z"/>
    <path fill="#000000" d="M129,393 m15.82,14.529 l-6.938,-13 c-0.173,-0.325 -0.512,-0.529 -0.880999,-0.529 h-0.0010004 c-0.369,0 -0.707,0.203 -0.881,0.528 l-6.969,13 c-0.166,0.311 -0.157,0.685 0.023,0.986 c0.181,0.3 0.507,0.486 0.858,0.486 h13.906 c0.351,0 0.677,-0.184 0.858,-0.486 c0.181,-0.301 0.19,-0.675 0.0249996,-0.985 z m-7.82,-0.529 c-0.552,0 -1,-0.448 -1,-1 s0.448,-1 1,-1 c0.551,0 1,0.448 1,1 s-0.449,1 -1,1 z m1,-3.984 c0,0.553 -0.449,1 -1,1 c-0.552,0 -1,-0.447 -1,-1 v-4 c0,-0.552 0.448,-1 1,-1 c0.551,0 1,0.448 1,1 v4 z"/>

    <path fill="#e11d21" d="M4,418m8,0 c-4.418,0 -8,3.582 -8,8 s3.582,8 8,8 s8,-3.582 8,-8 s-3.582,-8 -8,-8 z m0,13.107 c-0.625,0 -1.053,-0.482 -1.053,-1.107 c0,-0.643 0.446,-1.107 1.053,-1.107 c0.642,0 1.053,0.464 1.053,1.107 c4.76837e-07,0.625 -0.411,1.107 -1.053,1.107 z m0.415,-4.226 c-0.159,0.543 -0.661,0.553 -0.829,0 c-0.193,-0.638 -0.877,-3.057 -0.877,-4.628 c0,-2.073 2.594,-2.083 2.594,0 c-0.00100017,1.58 -0.722,4.062 -0.888,4.628 z" />
    <path fill="#009800" d="M29,418m8,0 c-4.418,0 -8,3.582 -8,8 s3.582,8 8,8 s8,-3.582 8,-8 s-3.582,-8 -8,-8 z m0,13.107 c-0.625,0 -1.053,-0.482 -1.053,-1.107 c0,-0.643 0.446,-1.107 1.053,-1.107 c0.642,0 1.053,0.464 1.053,1.107 c4.76837e-07,0.625 -0.411,1.107 -1.053,1.107 z m0.415,-4.226 c-0.159,0.543 -0.661,0.553 -0.829,0 c-0.193,-0.638 -0.877,-3.057 -0.877,-4.628 c0,-2.073 2.594,-2.083 2.594,0 c-0.00100017,1.58 -0.722,4.062 -0.888,4.628 z" />
    <path fill="#207de5" d="M54,418m8,0 c-4.418,0 -8,3.582 -8,8 s3.582,8 8,8 s8,-3.582 8,-8 s-3.582,-8 -8,-8 z m0,13.107 c-0.625,0 -1.053,-0.482 -1.053,-1.107 c0,-0.643 0.446,-1.107 1.053,-1.107 c0.642,0 1.053,0.464 1.053,1.107 c4.76837e-07,0.625 -0.411,1.107 -1.053,1.107 z m0.415,-4.226 c-0.159,0.543 -0.661,0.553 -0.829,0 c-0.193,-0.638 -0.877,-3.057 -0.877,-4.628 c0,-2.073 2.594,-2.083 2.594,0 c-0.00100017,1.58 -0.722,4.062 -0.888,4.628 z" />
    <path fill="#fbca04" d="M79,418m8,0 c-4.418,0 -8,3.582 -8,8 s3.582,8 8,8 s8,-3.582 8,-8 s-3.582,-8 -8,-8 z m0,13.107 c-0.625,0 -1.053,-0.482 -1.053,-1.107 c0,-0.643 0.446,-1.107 1.053,-1.107 c0.642,0 1.053,0.464 1.053,1.107 c4.76837e-07,0.625 -0.411,1.107 -1.053,1.107 z m0.415,-4.226 c-0.159,0.543 -0.661,0.553 -0.829,0 c-0.193,-0.638 -0.877,-3.057 -0.877,-4.628 c0,-2.073 2.594,-2.083 2.594,0 c-0.00100017,1.58 -0.722,4.062 -0.888,4.628 z" />
    <path fill="#ffffff" d="M104,418m8,0 c-4.418,0 -8,3.582 -8,8 s3.582,8 8,8 s8,-3.582 8,-8 s-3.582,-8 -8,-8 z m0,13.107 c-0.625,0 -1.053,-0.482 -1.053,-1.107 c0,-0.643 0.446,-1.107 1.053,-1.107 c0.642,0 1.053,0.464 1.053,1.107 c4.76837e-07,0.625 -0.411,1.107 -1.053,1.107 z m0.415,-4.226 c-0.159,0.543 -0.661,0.553 -0.829,0 c-0.193,-0.638 -0.877,-3.057 -0.877,-4.628 c0,-2.073 2.594,-2.083 2.594,0 c-0.00100017,1.58 -0.722,4.062 -0.888,4.628 z" />
    <path fill="#000000" d="M129,418m8,0 c-4.418,0 -8,3.582 -8,8 s3.582,8 8,8 s8,-3.582 8,-8 s-3.582,-8 -8,-8 z m0,13.107 c-0.625,0 -1.053,-0.482 -1.053,-1.107 c0,-0.643 0.446,-1.107 1.053,-1.107 c0.642,0 1.053,0.464 1.053,1.107 c4.76837e-07,0.625 -0.411,1.107 -1.053,1.107 z m0.415,-4.226 c-0.159,0.543 -0.661,0.553 -0.829,0 c-0.193,-0.638 -0.877,-3.057 -0.877,-4.628 c0,-2.073 2.594,-2.083 2.594,0 c-0.00100017,1.58 -0.722,4.062 -0.888,4.628 z" />

    <path fill="#e11d21" d="M4,443m14.756,3.814 c-0.715,-1.226 -1.686,-2.196 -2.911,-2.911 c-1.226,-0.716 -2.565,-1.074 -4.016,-1.074 c-1.451,0 -2.79,0.358 -4.016,1.073 c-1.226,0.716 -2.196,1.686 -2.911,2.912 c-0.716,1.226 -1.073,2.564 -1.073,4.015 c0,1.451 0.358,2.79 1.073,4.016 c0.715,1.226 1.686,2.196 2.911,2.911 c1.226,0.715 2.564,1.073 4.016,1.073 s2.79,-0.358 4.016,-1.073 c1.226,-0.715 2.196,-1.686 2.911,-2.911 c0.715,-1.226 1.073,-2.564 1.073,-4.016 c9.53674e-07,-1.451 -0.358,-2.79 -1.073,-4.015 z m-1.74,2.797 l-5.656,5.656 c-0.132,0.132 -0.292,0.198 -0.479,0.198 c-0.181,0 -0.337,-0.066 -0.469,-0.198 l-3.771,-3.771 c-0.125,-0.125 -0.188,-0.281 -0.188,-0.469 c0,-0.194 0.062,-0.354 0.187,-0.479 l0.948,-0.937 c0.132,-0.132 0.288,-0.198 0.469,-0.198 c0.181,0 0.337,0.066 0.469,0.198 l2.354,2.354 l4.25,-4.24 c0.132,-0.132 0.288,-0.198 0.469,-0.198 c0.18,0 0.337,0.066 0.469,0.198 l0.948,0.938 c0.125,0.125 0.188,0.285 0.188,0.479 c2.38419e-07,0.186999 -0.0630004,0.343999 -0.188,0.468999 z" />
    <path fill="#009800" d="M29,443m14.756,3.814 c-0.715,-1.226 -1.686,-2.196 -2.911,-2.911 c-1.226,-0.716 -2.565,-1.074 -4.016,-1.074 c-1.451,0 -2.79,0.358 -4.016,1.073 c-1.226,0.716 -2.196,1.686 -2.911,2.912 c-0.716,1.226 -1.073,2.564 -1.073,4.015 c0,1.451 0.358,2.79 1.073,4.016 c0.715,1.226 1.686,2.196 2.911,2.911 c1.226,0.715 2.564,1.073 4.016,1.073 s2.79,-0.358 4.016,-1.073 c1.226,-0.715 2.196,-1.686 2.911,-2.911 c0.715,-1.226 1.073,-2.564 1.073,-4.016 c9.53674e-07,-1.451 -0.358,-2.79 -1.073,-4.015 z m-1.74,2.797 l-5.656,5.656 c-0.132,0.132 -0.292,0.198 -0.479,0.198 c-0.181,0 -0.337,-0.066 -0.469,-0.198 l-3.771,-3.771 c-0.125,-0.125 -0.188,-0.281 -0.188,-0.469 c0,-0.194 0.062,-0.354 0.187,-0.479 l0.948,-0.937 c0.132,-0.132 0.288,-0.198 0.469,-0.198 c0.181,0 0.337,0.066 0.469,0.198 l2.354,2.354 l4.25,-4.24 c0.132,-0.132 0.288,-0.198 0.469,-0.198 c0.18,0 0.337,0.066 0.469,0.198 l0.948,0.938 c0.125,0.125 0.188,0.285 0.188,0.479 c2.38419e-07,0.186999 -0.0630004,0.343999 -0.188,0.468999 z" />
    <path fill="#207de5" d="M54,443m14.756,3.814 c-0.715,-1.226 -1.686,-2.196 -2.911,-2.911 c-1.226,-0.716 -2.565,-1.074 -4.016,-1.074 c-1.451,0 -2.79,0.358 -4.016,1.073 c-1.226,0.716 -2.196,1.686 -2.911,2.912 c-0.716,1.226 -1.073,2.564 -1.073,4.015 c0,1.451 0.358,2.79 1.073,4.016 c0.715,1.226 1.686,2.196 2.911,2.911 c1.226,0.715 2.564,1.073 4.016,1.073 s2.79,-0.358 4.016,-1.073 c1.226,-0.715 2.196,-1.686 2.911,-2.911 c0.715,-1.226 1.073,-2.564 1.073,-4.016 c9.53674e-07,-1.451 -0.358,-2.79 -1.073,-4.015 z m-1.74,2.797 l-5.656,5.656 c-0.132,0.132 -0.292,0.198 -0.479,0.198 c-0.181,0 -0.337,-0.066 -0.469,-0.198 l-3.771,-3.771 c-0.125,-0.125 -0.188,-0.281 -0.188,-0.469 c0,-0.194 0.062,-0.354 0.187,-0.479 l0.948,-0.937 c0.132,-0.132 0.288,-0.198 0.469,-0.198 c0.181,0 0.337,0.066 0.469,0.198 l2.354,2.354 l4.25,-4.24 c0.132,-0.132 0.288,-0.198 0.469,-0.198 c0.18,0 0.337,0.066 0.469,0.198 l0.948,0.938 c0.125,0.125 0.188,0.285 0.188,0.479 c2.38419e-07,0.186999 -0.0630004,0.343999 -0.188,0.468999 z" />
    <path fill="#fbca04" d="M79,443m14.756,3.814 c-0.715,-1.226 -1.686,-2.196 -2.911,-2.911 c-1.226,-0.716 -2.565,-1.074 -4.016,-1.074 c-1.451,0 -2.79,0.358 -4.016,1.073 c-1.226,0.716 -2.196,1.686 -2.911,2.912 c-0.716,1.226 -1.073,2.564 -1.073,4.015 c0,1.451 0.358,2.79 1.073,4.016 c0.715,1.226 1.686,2.196 2.911,2.911 c1.226,0.715 2.564,1.073 4.016,1.073 s2.79,-0.358 4.016,-1.073 c1.226,-0.715 2.196,-1.686 2.911,-2.911 c0.715,-1.226 1.073,-2.564 1.073,-4.016 c9.53674e-07,-1.451 -0.358,-2.79 -1.073,-4.015 z m-1.74,2.797 l-5.656,5.656 c-0.132,0.132 -0.292,0.198 -0.479,0.198 c-0.181,0 -0.337,-0.066 -0.469,-0.198 l-3.771,-3.771 c-0.125,-0.125 -0.188,-0.281 -0.188,-0.469 c0,-0.194 0.062,-0.354 0.187,-0.479 l0.948,-0.937 c0.132,-0.132 0.288,-0.198 0.469,-0.198 c0.181,0 0.337,0.066 0.469,0.198 l2.354,2.354 l4.25,-4.24 c0.132,-0.132 0.288,-0.198 0.469,-0.198 c0.18,0 0.337,0.066 0.469,0.198 l0.948,0.938 c0.125,0.125 0.188,0.285 0.188,0.479 c2.38419e-07,0.186999 -0.0630004,0.343999 -0.188,0.468999 z" />
    <path fill="#ffffff" d="M104,443m14.756,3.814 c-0.715,-1.226 -1.686,-2.196 -2.911,-2.911 c-1.226,-0.716 -2.565,-1.074 -4.016,-1.074 c-1.451,0 -2.79,0.358 -4.016,1.073 c-1.226,0.716 -2.196,1.686 -2.911,2.912 c-0.716,1.226 -1.073,2.564 -1.073,4.015 c0,1.451 0.358,2.79 1.073,4.016 c0.715,1.226 1.686,2.196 2.911,2.911 c1.226,0.715 2.564,1.073 4.016,1.073 s2.79,-0.358 4.016,-1.073 c1.226,-0.715 2.196,-1.686 2.911,-2.911 c0.715,-1.226 1.073,-2.564 1.073,-4.016 c9.53674e-07,-1.451 -0.358,-2.79 -1.073,-4.015 z m-1.74,2.797 l-5.656,5.656 c-0.132,0.132 -0.292,0.198 -0.479,0.198 c-0.181,0 -0.337,-0.066 -0.469,-0.198 l-3.771,-3.771 c-0.125,-0.125 -0.188,-0.281 -0.188,-0.469 c0,-0.194 0.062,-0.354 0.187,-0.479 l0.948,-0.937 c0.132,-0.132 0.288,-0.198 0.469,-0.198 c0.181,0 0.337,0.066 0.469,0.198 l2.354,2.354 l4.25,-4.24 c0.132,-0.132 0.288,-0.198 0.469,-0.198 c0.18,0 0.337,0.066 0.469,0.198 l0.948,0.938 c0.125,0.125 0.188,0.285 0.188,0.479 c2.38419e-07,0.186999 -0.0630004,0.343999 -0.188,0.468999 z" />
    <path fill="#000000" d="M129,443m14.756,3.814 c-0.715,-1.226 -1.686,-2.196 -2.911,-2.911 c-1.226,-0.716 -2.565,-1.074 -4.016,-1.074 c-1.451,0 -2.79,0.358 -4.016,1.073 c-1.226,0.716 -2.196,1.686 -2.911,2.912 c-0.716,1.226 -1.073,2.564 -1.073,4.015 c0,1.451 0.358,2.79 1.073,4.016 c0.715,1.226 1.686,2.196 2.911,2.911 c1.226,0.715 2.564,1.073 4.016,1.073 s2.79,-0.358 4.016,-1.073 c1.226,-0.715 2.196,-1.686 2.911,-2.911 c0.715,-1.226 1.073,-2.564 1.073,-4.016 c9.53674e-07,-1.451 -0.358,-2.79 -1.073,-4.015 z m-1.74,2.797 l-5.656,5.656 c-0.132,0.132 -0.292,0.198 -0.479,0.198 c-0.181,0 -0.337,-0.066 -0.469,-0.198 l-3.771,-3.771 c-0.125,-0.125 -0.188,-0.281 -0.188,-0.469 c0,-0.194 0.062,-0.354 0.187,-0.479 l0.948,-0.937 c0.132,-0.132 0.288,-0.198 0.469,-0.198 c0.181,0 0.337,0.066 0.469,0.198 l2.354,2.354 l4.25,-4.24 c0.132,-0.132 0.288,-0.198 0.469,-0.198 c0.18,0 0.337,0.066 0.469,0.198 l0.948,0.938 c0.125,0.125 0.188,0.285 0.188,0.479 c2.38419e-07,0.186999 -0.0630004,0.343999 -0.188,0.468999 z" />

    <path fill="#e11d21" d="M4,468m8,0 c-4.411,0 -8,3.589 -8,8 s3.589,8 8,8 c4.411,0 8,-3.589 8,-8 s-3.589,-8 -8,-8 z m0,2.704 c0.97,0 1.881,0.263 2.663,0.72 l-7.239,7.239 c-0.457,-0.782 -0.72,-1.693 -0.72,-2.663 c0,-2.92 2.376,-5.296 5.296,-5.296 z m0,10.592 c-0.97,0 -1.881,-0.263 -2.663,-0.72 l7.239,-7.239 c0.458,0.783 0.72,1.693 0.72,2.663 c-2.38419e-07,2.92 -2.376,5.296 -5.296,5.296 z"/>
    <path fill="#009800" d="M29,468m8,0 c-4.411,0 -8,3.589 -8,8 s3.589,8 8,8 c4.411,0 8,-3.589 8,-8 s-3.589,-8 -8,-8 z m0,2.704 c0.97,0 1.881,0.263 2.663,0.72 l-7.239,7.239 c-0.457,-0.782 -0.72,-1.693 -0.72,-2.663 c0,-2.92 2.376,-5.296 5.296,-5.296 z m0,10.592 c-0.97,0 -1.881,-0.263 -2.663,-0.72 l7.239,-7.239 c0.458,0.783 0.72,1.693 0.72,2.663 c-2.38419e-07,2.92 -2.376,5.296 -5.296,5.296 z"/>
    <path fill="#207de5" d="M54,468m8,0 c-4.411,0 -8,3.589 -8,8 s3.589,8 8,8 c4.411,0 8,-3.589 8,-8 s-3.589,-8 -8,-8 z m0,2.704 c0.97,0 1.881,0.263 2.663,0.72 l-7.239,7.239 c-0.457,-0.782 -0.72,-1.693 -0.72,-2.663 c0,-2.92 2.376,-5.296 5.296,-5.296 z m0,10.592 c-0.97,0 -1.881,-0.263 -2.663,-0.72 l7.239,-7.239 c0.458,0.783 0.72,1.693 0.72,2.663 c-2.38419e-07,2.92 -2.376,5.296 -5.296,5.296 z"/>
    <path fill="#fbca04" d="M79,468m8,0 c-4.411,0 -8,3.589 -8,8 s3.589,8 8,8 c4.411,0 8,-3.589 8,-8 s-3.589,-8 -8,-8 z m0,2.704 c0.97,0 1.881,0.263 2.663,0.72 l-7.239,7.239 c-0.457,-0.782 -0.72,-1.693 -0.72,-2.663 c0,-2.92 2.376,-5.296 5.296,-5.296 z m0,10.592 c-0.97,0 -1.881,-0.263 -2.663,-0.72 l7.239,-7.239 c0.458,0.783 0.72,1.693 0.72,2.663 c-2.38419e-07,2.92 -2.376,5.296 -5.296,5.296 z"/>
    <path fill="#ffffff" d="M104,468m8,0 c-4.411,0 -8,3.589 -8,8 s3.589,8 8,8 c4.411,0 8,-3.589 8,-8 s-3.589,-8 -8,-8 z m0,2.704 c0.97,0 1.881,0.263 2.663,0.72 l-7.239,7.239 c-0.457,-0.782 -0.72,-1.693 -0.72,-2.663 c0,-2.92 2.376,-5.296 5.296,-5.296 z m0,10.592 c-0.97,0 -1.881,-0.263 -2.663,-0.72 l7.239,-7.239 c0.458,0.783 0.72,1.693 0.72,2.663 c-2.38419e-07,2.92 -2.376,5.296 -5.296,5.296 z"/>
    <path fill="#000000" d="M129,468m8,0 c-4.411,0 -8,3.589 -8,8 s3.589,8 8,8 c4.411,0 8,-3.589 8,-8 s-3.589,-8 -8,-8 z m0,2.704 c0.97,0 1.881,0.263 2.663,0.72 l-7.239,7.239 c-0.457,-0.782 -0.72,-1.693 -0.72,-2.663 c0,-2.92 2.376,-5.296 5.296,-5.296 z m0,10.592 c-0.97,0 -1.881,-0.263 -2.663,-0.72 l7.239,-7.239 c0.458,0.783 0.72,1.693 0.72,2.663 c-2.38419e-07,2.92 -2.376,5.296 -5.296,5.296 z"/>

    <path fill="#e11d21" d="M4,493m7.999,0 c-4.418,0 -7.999,3.582 -7.999,8 c0,4.418 3.581,8 7.999,8 c4.419,0 8.001,-3.583 8.001,-8 c0,-4.418 -3.582,-8 -8.001,-8 z m3.439,10.166 l-1.274,1.272 c0,0 -2.016,-2.163 -2.166,-2.163 c-0.148,0 -2.164,2.163 -2.164,2.163 l-1.275,-1.272 c0,0 2.165,-1.986 2.165,-2.163 c0,-0.18 -2.165,-2.167 -2.165,-2.167 l1.275,-1.275 c0,0 2.033,2.164 2.164,2.164 c0.133,0 2.166,-2.164 2.166,-2.164 l1.274,1.275 c0,0 -2.166,2.016 -2.166,2.167 c0.000999928,0.144 2.166,2.163 2.166,2.163 z"/>
    <path fill="#009800" d="M29,493m7.999,0 c-4.418,0 -7.999,3.582 -7.999,8 c0,4.418 3.581,8 7.999,8 c4.419,0 8.001,-3.583 8.001,-8 c0,-4.418 -3.582,-8 -8.001,-8 z m3.439,10.166 l-1.274,1.272 c0,0 -2.016,-2.163 -2.166,-2.163 c-0.148,0 -2.164,2.163 -2.164,2.163 l-1.275,-1.272 c0,0 2.165,-1.986 2.165,-2.163 c0,-0.18 -2.165,-2.167 -2.165,-2.167 l1.275,-1.275 c0,0 2.033,2.164 2.164,2.164 c0.133,0 2.166,-2.164 2.166,-2.164 l1.274,1.275 c0,0 -2.166,2.016 -2.166,2.167 c0.000999928,0.144 2.166,2.163 2.166,2.163 z"/>
    <path fill="#207de5" d="M54,493m7.999,0 c-4.418,0 -7.999,3.582 -7.999,8 c0,4.418 3.581,8 7.999,8 c4.419,0 8.001,-3.583 8.001,-8 c0,-4.418 -3.582,-8 -8.001,-8 z m3.439,10.166 l-1.274,1.272 c0,0 -2.016,-2.163 -2.166,-2.163 c-0.148,0 -2.164,2.163 -2.164,2.163 l-1.275,-1.272 c0,0 2.165,-1.986 2.165,-2.163 c0,-0.18 -2.165,-2.167 -2.165,-2.167 l1.275,-1.275 c0,0 2.033,2.164 2.164,2.164 c0.133,0 2.166,-2.164 2.166,-2.164 l1.274,1.275 c0,0 -2.166,2.016 -2.166,2.167 c0.000999928,0.144 2.166,2.163 2.166,2.163 z"/>
    <path fill="#fbca04" d="M79,493m7.999,0 c-4.418,0 -7.999,3.582 -7.999,8 c0,4.418 3.581,8 7.999,8 c4.419,0 8.001,-3.583 8.001,-8 c0,-4.418 -3.582,-8 -8.001,-8 z m3.439,10.166 l-1.274,1.272 c0,0 -2.016,-2.163 -2.166,-2.163 c-0.148,0 -2.164,2.163 -2.164,2.163 l-1.275,-1.272 c0,0 2.165,-1.986 2.165,-2.163 c0,-0.18 -2.165,-2.167 -2.165,-2.167 l1.275,-1.275 c0,0 2.033,2.164 2.164,2.164 c0.133,0 2.166,-2.164 2.166,-2.164 l1.274,1.275 c0,0 -2.166,2.016 -2.166,2.167 c0.000999928,0.144 2.166,2.163 2.166,2.163 z"/>
    <path fill="#ffffff" d="M104,493m7.999,0 c-4.418,0 -7.999,3.582 -7.999,8 c0,4.418 3.581,8 7.999,8 c4.419,0 8.001,-3.583 8.001,-8 c0,-4.418 -3.582,-8 -8.001,-8 z m3.439,10.166 l-1.274,1.272 c0,0 -2.016,-2.163 -2.166,-2.163 c-0.148,0 -2.164,2.163 -2.164,2.163 l-1.275,-1.272 c0,0 2.165,-1.986 2.165,-2.163 c0,-0.18 -2.165,-2.167 -2.165,-2.167 l1.275,-1.275 c0,0 2.033,2.164 2.164,2.164 c0.133,0 2.166,-2.164 2.166,-2.164 l1.274,1.275 c0,0 -2.166,2.016 -2.166,2.167 c0.000999928,0.144 2.166,2.163 2.166,2.163 z"/>
    <path fill="#000000" d="M129,493m7.999,0 c-4.418,0 -7.999,3.582 -7.999,8 c0,4.418 3.581,8 7.999,8 c4.419,0 8.001,-3.583 8.001,-8 c0,-4.418 -3.582,-8 -8.001,-8 z m3.439,10.166 l-1.274,1.272 c0,0 -2.016,-2.163 -2.166,-2.163 c-0.148,0 -2.164,2.163 -2.164,2.163 l-1.275,-1.272 c0,0 2.165,-1.986 2.165,-2.163 c0,-0.18 -2.165,-2.167 -2.165,-2.167 l1.275,-1.275 c0,0 2.033,2.164 2.164,2.164 c0.133,0 2.166,-2.164 2.166,-2.164 l1.274,1.275 c0,0 -2.166,2.016 -2.166,2.167 c0.000999928,0.144 2.166,2.163 2.166,2.163 z"/>

    <!--<path fill="#FF0000" d="M0,518v24h21v-24z" />-->
    <path fill="#b5b9c4" d="M6,528h9l-4.5,5z" />

    <!--<path fill="#FF0000" d="M21,518v24h21v-24z" />-->
    <path fill="#000000" d="M28,529h7l-3.5,4z" />

    <!--<path fill="#FF0000" d="M42,518v24h21v-24z" />-->
    <path fill="#777777" d="M49,529h7l-3.5,4z" />

    <!--<path fill="#FF0000" d="M63,518v24h21v-24z" />-->
    <path fill="#64a5bb" d="M77.498,527.955 c-0.009,-0.242 -0.1,-0.483 -0.285,-0.668 c-0.185,-0.185 -0.426,-0.276 -0.668,-0.287 c-0.269,-0.011 -0.543,0.08 -0.748,0.287 l-2.297,2.297 l-2.296,-2.297 c-0.207,-0.207 -0.479,-0.297 -0.75,-0.287 c-0.242,0.011 -0.483,0.102 -0.668,0.287 c-0.183,0.185 -0.274,0.426 -0.285,0.668 c-0.012,0.271 0.078,0.541 0.285,0.748 l2.298,2.29698 l-2.297,2.295 c-0.207,0.207 -0.296,0.479 -0.285,0.75 c0.009,0.242 0.1,0.483 0.285,0.668 c0.185,0.183 0.426,0.274 0.668,0.285 c0.271,0.011 0.543,-0.08 0.748,-0.287 l2.297,-2.295 l2.297,2.297 c0.207,0.207 0.479,0.296 0.748,0.287 c0.242,-0.011 0.483,-0.102 0.668,-0.287 c0.185,-0.185 0.276,-0.426 0.287,-0.668 c0.011,-0.271 -0.08,-0.541 -0.287,-0.748 l-2.298,-2.297 l2.296,-2.295 c0.207998,-0.207014 0.297002,-0.478987 0.287,-0.749983 l0,0 z" />


</svg>